# xmcd
#
# Track frame offsets:
#	150
#	12002
#	26213
#	37645
#	51826
#	71574
#	86928
#	100968
#	113080
#	128243
#	146131
#	160594
#	174183
#	189847
#	205716
#	222686
#	241316
#
# Disc length: 3422 seconds
#
# Revision: 1
# Processed by: cddbd v1.5.2PL0 Copyright (c) Steve Scherf et al.
# Submitted via: audiograbber 1.83.01
#
DISCID=e50d5c11
DTITLE=Patty Loveless - CB5067-01
DYEAR=2006
DGENRE=Karaoke
TTITLE0=Timber I'm Falling In Love 
TTITLE1=If My Heart Had Windows 
TTITLE2=A Little Bit In Love
TTITLE3=The Lonely Side Of Love
TTITLE4=Don't Toss Us Away 
TTITLE5=The Blue Side Of Town
TTITLE6=Hurt Me Bad (In A Real Good Way) 
TTITLE7=Chains 
TTITLE8=On Down The Line 
TTITLE9=The Night's Too Long
TTITLE10=I'm That Kind Of Girl 
TTITLE11=Blue Memories 
TTITLE12=Jealous Bone 
TTITLE13=Can't Stop Myself From Loving You 
TTITLE14=Blame It On Your Heart 
TTITLE15=Nothin' But The Wheel 
TTITLE16=You Will 
EXTD=Disc 1 of 3, Chartbuster Karaoke 50 Greatest Hits of Patty Loveless
EXTT0=
EXTT1=
EXTT2=
EXTT3=
EXTT4=
EXTT5=
EXTT6=
EXTT7=
EXTT8=
EXTT9=
EXTT10=
EXTT11=
EXTT12=
EXTT13=
EXTT14=
EXTT15=
EXTT16=
PLAYORDER=
